<svg width="353" height="26" viewBox="0 0 353 26" fill="none" xmlns="http://www.w3.org/2000/svg">
<g opacity="0.2">
<g clip-path="url(#clip0_19_8650)">
<path d="M4.59717 5.70007H6.25026L7.57553 10.6332L8.85197 5.93206H10.1982L11.4955 10.6332L12.7929 5.70007H14.446L12.3046 12.7893H10.812L9.50065 7.99946L8.22421 12.7893H6.73154L4.59717 5.70007Z" fill="white"/>
<path d="M15.2346 9.80753C15.3113 10.9402 16.3436 11.5747 17.3341 11.5611C18.178 11.5611 18.743 11.1858 19.0778 10.6058H20.8565C20.5147 11.3905 19.9985 11.9841 19.3917 12.3867C18.7849 12.8029 18.0734 13.0076 17.3201 13.0076C15.0881 13.0076 13.4908 11.2404 13.4908 9.26169C13.4908 7.24887 15.102 5.48169 17.2922 5.48169C18.3733 5.48169 19.322 5.88425 19.9985 6.56656C20.8844 7.46039 21.2122 8.56573 21.0657 9.80753H15.2346ZM19.3638 8.51797C19.301 7.8493 18.5686 6.90772 17.3062 6.91454C16.0227 6.91454 15.3252 7.81519 15.2625 8.51797H19.3638Z" fill="white"/>
<path d="M20.814 3.23706H22.5438V6.58038C23.2553 5.71385 24.3016 5.48186 24.9572 5.48186C26.6731 5.48186 28.5703 6.71002 28.5703 9.21409C28.5703 11.6158 26.8544 13.0077 24.8735 13.0077C23.7366 13.0077 22.8577 12.4687 22.4741 11.7659V12.7894H20.814V3.23706ZM26.8475 9.22774C26.8475 8.06781 25.9337 7.058 24.6712 7.058C23.3251 7.058 22.4811 8.08828 22.4811 9.24139C22.4811 10.4286 23.3251 11.4384 24.6294 11.4384C26.0384 11.4384 26.8475 10.3399 26.8475 9.24139V9.22774Z" fill="white"/>
<path d="M6.73175 12.6529H8.35694V13.6832C8.8731 12.9736 9.71709 12.4277 10.9168 12.4277C13.4488 12.4277 14.5159 14.5292 14.5159 16.2487C14.5159 18.2615 13.0512 19.9536 10.9238 19.9536C9.51481 19.9536 8.74755 19.244 8.4546 18.7937V22.2121H6.73175V12.6529ZM12.7861 16.1873C12.7861 15.1706 12.0328 14.0039 10.568 14.0039C9.93331 14.0039 9.39623 14.2495 8.99865 14.6521C8.61502 15.041 8.37787 15.5937 8.37787 16.2146C8.37787 16.8218 8.61502 17.3608 9.0126 17.7498C9.41018 18.1387 9.96121 18.3843 10.582 18.3843C11.9003 18.3843 12.7861 17.3677 12.7861 16.2009V16.1873Z" fill="white"/>
<path d="M21.9864 19.7422H20.2566V18.7256C19.7963 19.5512 18.8337 19.9674 17.8154 19.9674C15.4926 19.9674 14.1325 18.2002 14.1325 16.2011C14.1325 13.9699 15.7786 12.4415 17.8154 12.4415C19.1336 12.4415 19.9427 13.1238 20.2566 13.697V12.653H21.9864V19.7422ZM15.8623 16.2283C15.8623 17.1085 16.511 18.3844 18.0665 18.3844C19.029 18.3844 19.6637 17.8932 19.9916 17.2518C20.166 16.9448 20.2427 16.6036 20.2706 16.2556C20.2845 15.9213 20.2148 15.5733 20.0753 15.2595C19.7684 14.5908 19.0988 14.004 18.0595 14.004C16.6575 14.004 15.8693 15.1162 15.8693 16.2147L15.8623 16.2283Z" fill="white"/>
<path d="M24.0857 19.4692L21.3515 12.653H23.1999L24.9646 17.3677L26.7084 12.653H28.5568L24.7414 22.2189H22.893L24.0857 19.4692Z" fill="white"/>
<path d="M34.3178 8.32705C34.1574 8.17012 33.8853 8.17012 33.7249 8.32705L29.5608 12.4004L29.2678 12.687V13.0964V17.7088C29.2678 17.934 29.4561 18.1182 29.6863 18.1182H34.4015C34.6317 18.1182 34.9525 17.9886 35.1129 17.8316L39.2771 13.7582C39.4375 13.6013 39.4375 13.3352 39.2771 13.1783L34.3178 8.32705Z" fill="#595959"/>
<path d="M29.98 13.0759H30.4055V13.4785C30.5798 13.2056 30.8867 13.0077 31.2983 13.0077C32.1004 13.0077 32.4841 13.6627 32.4841 14.2359C32.4841 14.8841 32.0028 15.4367 31.3053 15.4367C30.817 15.4367 30.531 15.1775 30.4264 14.9932V16.2009H29.98V13.0759ZM32.0376 14.2154C32.0376 13.8401 31.7656 13.4171 31.2216 13.4171C30.9914 13.4171 30.7891 13.5058 30.6426 13.6559C30.5031 13.7992 30.4124 14.0039 30.4124 14.229C30.4124 14.4542 30.4961 14.6521 30.6426 14.7954C30.7891 14.9386 30.9984 15.0273 31.2216 15.0273C31.6959 15.0205 32.0376 14.6657 32.0376 14.2154Z" fill="white"/>
<path d="M32.6232 12.2504H33.0696V15.3686H32.6232V12.2504Z" fill="white"/>
<path d="M35.4903 15.3617H35.0648V15.0069C34.9532 15.2457 34.6882 15.4299 34.2697 15.4299C33.5163 15.4231 33.321 14.8909 33.321 14.4133V13.0691H33.7675V14.3109C33.7675 14.7203 33.9279 15.0205 34.3952 15.0205C34.8347 15.0137 35.0369 14.7408 35.0369 14.3518V13.0691H35.4833L35.4903 15.3617Z" fill="white"/>
<path d="M36.7877 13.6695C36.7877 13.4921 36.6761 13.3557 36.446 13.3625C36.2297 13.3625 36.1042 13.5058 36.1112 13.6559C36.1181 13.8401 36.2855 13.922 36.5366 13.9902C36.8924 14.0857 37.283 14.1881 37.2969 14.6794C37.3039 15.1229 36.9273 15.4299 36.4599 15.4299C36.0902 15.4299 35.6299 15.2252 35.6089 14.6998H36.0554C36.0693 14.9796 36.2995 15.0683 36.4669 15.0683C36.6831 15.0683 36.8505 14.9182 36.8505 14.7271C36.8435 14.502 36.6692 14.4269 36.2507 14.2904C35.9228 14.1949 35.6647 14.0448 35.6578 13.6968C35.6578 13.2601 36.0205 13.0009 36.446 13.0009C36.7668 13.0009 37.1923 13.1578 37.2272 13.6695H36.7877Z" fill="white"/>
</g>
<g clip-path="url(#clip1_19_8650)">
<path d="M90.2141 6.40039C87.4098 6.40039 84.8921 7.84452 84.8921 10.4946C84.8921 13.5466 89.3397 13.755 89.3397 15.2736C89.3397 15.9137 88.5858 16.4944 87.3194 16.4944C85.5102 16.4944 84.1533 15.6904 84.1533 15.6904L83.5804 18.3702C83.5804 18.3702 85.1333 19.0551 87.2139 19.0551C90.2895 19.0551 92.7017 17.5514 92.7017 14.8418C92.7017 11.626 88.2391 11.4176 88.2391 10.0033C88.2391 9.49707 88.8572 8.94622 90.1236 8.94622C91.5559 8.94622 92.7319 9.52685 92.7319 9.52685L93.3048 6.93635C93.2897 6.93635 92.0082 6.40039 90.2141 6.40039ZM64.5236 6.59393L64.4482 6.98102C64.4482 6.98102 65.6242 7.18945 66.6946 7.6212C68.0666 8.1125 68.157 8.39537 68.3983 9.27375L70.916 18.8467H74.2932L79.4645 6.59393H76.1024L72.7705 14.9311L71.4136 7.8594C71.293 7.05546 70.6597 6.59393 69.8758 6.59393H64.5236ZM80.8214 6.59393L78.183 18.8467H81.3943L84.0176 6.59393H80.8214ZM98.7022 6.59393C97.9333 6.59393 97.5262 6.99591 97.2247 7.71052L92.5208 18.8467H95.8829L96.5312 16.9857H100.632L101.024 18.8467H103.994L101.416 6.59393H98.7022ZM99.1395 9.91393L100.135 14.5143H97.4659L99.1395 9.91393Z" fill="white"/>
</g>
<g clip-path="url(#clip2_19_8650)">
<path d="M150.295 5.88855H142.596V19.5671H150.295V5.88855Z" fill="#D5D5D5"/>
<path d="M143.084 12.7276C143.084 10.0693 144.331 7.53173 146.433 5.88838C142.62 2.91584 137.096 3.56835 134.09 7.36257C131.084 11.1326 131.744 16.5943 135.581 19.5669C138.783 22.0561 143.255 22.0561 146.457 19.5669C144.331 17.9235 143.084 15.386 143.084 12.7276Z" fill="#8A8A8A"/>
<path d="M160.682 12.7279C160.682 17.5371 156.747 21.428 151.883 21.428C149.904 21.428 147.997 20.7755 146.458 19.5671C150.27 16.5946 150.93 11.1329 147.924 7.33864C147.484 6.80697 146.995 6.29946 146.458 5.88862C150.27 2.91609 155.818 3.5686 158.8 7.36281C160.022 8.88533 160.682 10.7704 160.682 12.7279Z" fill="white"/>
<path d="M159.851 18.1171V17.8271H159.973V17.7788H159.68V17.8271H159.802V18.1171H159.851ZM160.413 18.1171V17.7788H160.315L160.217 18.0205L160.12 17.7788H160.022V18.1171H160.095V17.8513L160.193 18.0688H160.266L160.364 17.8513V18.1171H160.413Z" fill="white"/>
</g>
<g clip-path="url(#clip3_19_8650)">
<path d="M271.189 6.46806C270.114 5.72218 268.487 5.346 266.355 5.346H260.769L258.693 16.7622H251.375L251.846 14.1721H256.253L256.776 11.263L252.37 11.2694L252.842 8.6909H257.382L257.986 5.34667H248.766L246.795 16.1756H243.411L245.396 5.3461H240.576L238.605 16.175H235.309L237.295 5.3461H232.478L230.399 16.7623H223.029L223.495 14.1722H227.92L228.443 11.2796L224.022 11.2751L224.491 8.69148H229.082L229.683 5.34583H200.951L199.315 14.3923L196.059 5.34583H191.058L188.367 20.1096H193.142L194.771 10.8137L197.932 20.1096H215.047L217.128 8.69005H219.805L217.724 20.1096H262.758L264.063 12.9012L266.175 20.1096H270.954L268.765 14.2194L269.266 14.1103C270.369 13.8709 271.229 13.3567 271.828 12.5858C272.426 11.8078 272.731 10.809 272.731 9.60923C272.731 8.21245 272.226 7.18477 271.188 6.4672L271.189 6.46806ZM210.891 16.7622H203.581L204.053 14.1721H208.638L209.158 11.2547H204.617L205.055 8.69163H212.354L210.89 16.7621L210.891 16.7622ZM267.252 11.7893C266.772 12.1295 266.075 12.2951 265.123 12.2951H264.178L264.903 8.33314H265.597C266.389 8.33314 266.965 8.46152 267.363 8.72341C267.674 8.92882 268.044 9.33516 268.044 10.1035C268.042 11.033 267.612 11.5324 267.251 11.7891L267.252 11.7893Z" fill="white"/>
</g>
<g clip-path="url(#clip4_19_8650)">
<path fill-rule="evenodd" clip-rule="evenodd" d="M305.593 6.40334C305.718 6.35466 305.845 6.33105 305.974 6.33105C306.065 6.33105 306.157 6.34335 306.249 6.36744C306.477 6.43284 306.661 6.56019 306.802 6.74901C306.942 6.93291 307.012 7.14287 307.012 7.37938V18.0461C307.012 18.3357 306.909 18.5816 306.705 18.7832C306.507 18.9897 306.264 19.0939 305.978 19.0939C305.692 19.0939 305.446 18.9897 305.241 18.7832C305.037 18.5816 304.935 18.3357 304.935 18.0461V11.142C304.935 11.142 301.622 16.6776 301.609 16.6988C301.513 16.8586 301.363 16.9692 301.197 17.0459C301.069 17.1059 300.926 17.1394 300.777 17.1394C300.626 17.1394 300.484 17.1059 300.356 17.0459C300.19 16.9692 300.039 16.862 299.945 16.6998C299.928 16.6722 296.618 11.142 296.618 11.142V18.0461C296.618 18.3357 296.516 18.5816 296.311 18.7832C296.107 18.9897 295.861 19.0939 295.576 19.0939C295.289 19.0939 295.046 18.9897 294.848 18.7832C294.643 18.5816 294.541 18.3357 294.541 18.0461V7.37938C294.541 7.14287 294.611 6.93291 294.751 6.74901C294.891 6.56019 295.076 6.43284 295.304 6.36744C295.396 6.34335 295.488 6.33105 295.579 6.33105C295.708 6.33105 295.834 6.35466 295.961 6.40334C296.177 6.49184 296.347 6.63641 296.469 6.8385L300.777 14.045L305.084 6.8385C305.206 6.63641 305.376 6.49184 305.593 6.40334ZM315.646 6.93143C315.768 6.67083 315.989 6.33105 316.587 6.33105C317.129 6.33105 317.406 6.67083 317.529 6.93143L322.505 17.5986C322.628 17.8597 322.641 18.1277 322.545 18.4031C322.449 18.6784 322.272 18.8785 322.015 19.0034C321.758 19.1278 321.494 19.1411 321.223 19.0443C320.951 18.9464 320.753 18.7669 320.631 18.5063L316.588 9.84286L312.543 18.5063C312.421 18.7669 312.224 18.9464 311.952 19.0443C311.681 19.1411 311.416 19.1278 311.159 19.0034C310.902 18.8785 310.725 18.6784 310.629 18.4031C310.533 18.1277 310.546 17.8597 310.669 17.5986L315.646 6.93143ZM327.461 8.20202C328.695 6.95454 330.179 6.33105 331.913 6.33105C333.541 6.33105 334.957 6.88571 336.162 7.99648C336.374 8.19317 336.485 8.43755 336.497 8.73061C336.508 9.02317 336.418 9.27641 336.223 9.49178C336.03 9.71206 335.789 9.8286 335.5 9.84089C335.213 9.8522 334.963 9.75976 334.751 9.56307C333.952 8.82256 333.006 8.45279 331.913 8.45279C330.755 8.45279 329.765 8.87025 328.942 9.70616C328.119 10.5416 327.708 11.5471 327.708 12.7228C327.708 13.9083 328.119 14.9134 328.942 15.7493C329.765 16.5847 330.755 17.0022 331.913 17.0022C333.006 17.0022 333.952 16.6329 334.751 15.8919C334.963 15.6957 335.213 15.6028 335.5 15.6151C335.789 15.6269 336.03 15.7429 336.223 15.9637C336.418 16.1795 336.508 16.4323 336.497 16.7248C336.485 17.0174 336.374 17.2623 336.162 17.459C334.957 18.5693 333.541 19.1244 331.913 19.1244C330.179 19.1244 328.695 18.5009 327.461 17.2534C326.233 16.0001 325.619 14.493 325.619 12.7322C325.619 10.9625 326.233 9.45539 327.461 8.20202ZM349.365 6.63788C349.567 6.43333 349.808 6.33105 350.09 6.33105C350.372 6.33105 350.614 6.43333 350.815 6.63788C351.017 6.84293 351.118 7.08878 351.118 7.37545V18.08C351.118 18.3667 351.017 18.613 350.815 18.8171C350.614 19.0221 350.372 19.1244 350.09 19.1244C349.808 19.1244 349.567 19.0221 349.365 18.8171C349.163 18.613 349.063 18.3667 349.063 18.08V13.8778H342.718V18.08C342.718 18.3667 342.62 18.613 342.425 18.8171C342.224 19.0221 341.982 19.1244 341.7 19.1244C341.418 19.1244 341.176 19.0221 340.975 18.8171C340.774 18.613 340.673 18.3667 340.673 18.08V7.37545C340.673 7.08878 340.774 6.84293 340.975 6.63788C341.176 6.43333 341.418 6.33105 341.7 6.33105C341.982 6.33105 342.224 6.43333 342.425 6.63788C342.62 6.84293 342.718 7.08878 342.718 7.37545V11.7979H349.063V7.37545C349.063 7.08878 349.163 6.84293 349.365 6.63788Z" fill="white"/>
</g>
</g>
<defs>
<clipPath id="clip0_19_8650">
<rect width="34.8004" height="18.982" fill="white" transform="translate(4.59741 3.23694)"/>
</clipPath>
<clipPath id="clip1_19_8650">
<rect width="39.5459" height="12.6547" fill="white" transform="translate(64.4482 6.40039)"/>
</clipPath>
<clipPath id="clip2_19_8650">
<rect width="28.4731" height="17.4002" fill="white" transform="translate(132.209 4.02771)"/>
</clipPath>
<clipPath id="clip3_19_8650">
<rect width="84.3647" height="14.7638" fill="white" transform="translate(188.369 5.3457)"/>
</clipPath>
<clipPath id="clip4_19_8650">
<rect width="60.1098" height="24.7821" fill="white" transform="translate(292.774 0.33667)"/>
</clipPath>
</defs>
</svg>
