<svg width="598" height="35" viewBox="0 0 598 35" fill="none" xmlns="http://www.w3.org/2000/svg">
<g opacity="0.2">
<g clip-path="url(#clip0_205_107)">
<path d="M6.06989 8.15894H8.3087L10.1035 14.8399L11.8322 8.47312H13.6554L15.4125 14.8399L17.1695 8.15894H19.4083L16.5083 17.76H14.4867L12.7108 11.273L10.9821 17.76H8.96051L6.06989 8.15894Z" fill="white"/>
<path d="M20.4758 13.7217C20.5797 15.2557 21.9778 16.1151 23.3192 16.0966C24.4622 16.0966 25.2274 15.5884 25.6808 14.8029H28.0897C27.6268 15.8656 26.9278 16.6695 26.1059 17.2147C25.2841 17.7784 24.3205 18.0556 23.3003 18.0556C20.2774 18.0556 18.1142 15.6623 18.1142 12.9825C18.1142 10.2565 20.2963 7.86316 23.2625 7.86316C24.7267 7.86316 26.0115 8.40836 26.9278 9.33242C28.1275 10.543 28.5715 12.0399 28.3731 13.7217H20.4758ZM26.0681 11.9753C25.9831 11.0697 24.9912 9.79446 23.2814 9.8037C21.5433 9.8037 20.5986 11.0235 20.5136 11.9753H26.0681Z" fill="white"/>
<path d="M28.033 4.823H30.3757V9.35092C31.3392 8.17736 32.7562 7.86318 33.6442 7.86318C35.968 7.86318 38.5375 9.52649 38.5375 12.9178C38.5375 16.1705 36.2136 18.0556 33.5308 18.0556C31.9911 18.0556 30.8008 17.3256 30.2812 16.3738V17.7599H28.033V4.823ZM36.2042 12.9363C36.2042 11.3654 34.9667 9.99777 33.2569 9.99777C31.4337 9.99777 30.2907 11.3931 30.2907 12.9548C30.2907 14.5627 31.4337 15.9303 33.2002 15.9303C35.1084 15.9303 36.2042 14.4425 36.2042 12.9548V12.9363Z" fill="white"/>
<path d="M8.96053 17.5752H11.1616V18.9705C11.8606 18.0095 13.0036 17.2703 14.6284 17.2703C18.0575 17.2703 19.5028 20.1164 19.5028 22.445C19.5028 25.171 17.5191 27.4627 14.6379 27.4627C12.7297 27.4627 11.6906 26.5017 11.2938 25.8918V30.5214H8.96053V17.5752ZM17.1601 22.3619C17.1601 20.985 16.1399 19.4049 14.1561 19.4049C13.2965 19.4049 12.5691 19.7375 12.0306 20.2827C11.5111 20.8094 11.1899 21.5579 11.1899 22.3988C11.1899 23.2213 11.5111 23.9513 12.0495 24.478C12.588 25.0047 13.3343 25.3374 14.175 25.3374C15.9604 25.3374 17.1601 23.9605 17.1601 22.3804V22.3619Z" fill="white"/>
<path d="M29.62 27.1762H27.2773V25.7993C26.6538 26.9175 25.3502 27.4811 23.971 27.4811C20.8254 27.4811 18.9833 25.0878 18.9833 22.3803C18.9833 19.3586 21.2127 17.2887 23.971 17.2887C25.7564 17.2887 26.8522 18.2128 27.2773 18.989V17.5752H29.62V27.1762ZM21.326 22.4173C21.326 23.6093 22.2045 25.3373 24.3111 25.3373C25.6147 25.3373 26.4744 24.672 26.9183 23.8034C27.1545 23.3875 27.2584 22.9255 27.2962 22.4542C27.3151 22.0014 27.2206 21.5302 27.0317 21.1051C26.6161 20.1995 25.7092 19.4048 24.3017 19.4048C22.4029 19.4048 21.3355 20.911 21.3355 22.3988L21.326 22.4173Z" fill="white"/>
<path d="M32.4634 26.8066L28.7604 17.5752H31.2637L33.6537 23.9605L36.0153 17.5752H38.5186L33.3514 30.5306H30.8481L32.4634 26.8066Z" fill="white"/>
<path d="M46.3214 11.7165C46.1041 11.504 45.7357 11.504 45.5185 11.7165L39.8789 17.2332L39.4821 17.6213V18.1758V24.4224C39.4821 24.7274 39.7372 24.9769 40.0489 24.9769H46.4348C46.7465 24.9769 47.181 24.8013 47.3983 24.5888L53.0379 19.0721C53.2551 18.8596 53.2551 18.4992 53.0379 18.2866L46.3214 11.7165Z" fill="#595959"/>
<path d="M40.4457 18.1481H41.022V18.6933C41.2581 18.3236 41.6738 18.0557 42.2311 18.0557C43.3175 18.0557 43.837 18.9428 43.837 19.719C43.837 20.5969 43.1852 21.3454 42.2406 21.3454C41.5793 21.3454 41.192 20.9942 41.0503 20.7447V22.3803H40.4457V18.1481ZM43.2325 19.6913C43.2325 19.183 42.864 18.6101 42.1272 18.6101C41.8155 18.6101 41.5415 18.7302 41.3431 18.9335C41.1542 19.1276 41.0314 19.4048 41.0314 19.7098C41.0314 20.0147 41.1448 20.2827 41.3431 20.4767C41.5415 20.6708 41.8249 20.7909 42.1272 20.7909C42.7696 20.7817 43.2325 20.3012 43.2325 19.6913Z" fill="white"/>
<path d="M44.0259 17.03H44.6305V21.2531H44.0259V17.03Z" fill="white"/>
<path d="M47.9085 21.2438H47.3322V20.7633C47.1811 21.0867 46.8221 21.3362 46.2553 21.3362C45.2351 21.327 44.9706 20.6062 44.9706 19.9593V18.1389H45.5752V19.8207C45.5752 20.3752 45.7924 20.7818 46.4254 20.7818C47.0205 20.7725 47.2944 20.4029 47.2944 19.8762V18.1389H47.899L47.9085 21.2438Z" fill="white"/>
<path d="M49.6655 18.9521C49.6655 18.7118 49.5144 18.527 49.2026 18.5363C48.9098 18.5363 48.7397 18.7303 48.7492 18.9336C48.7586 19.1831 48.9853 19.294 49.3254 19.3864C49.8072 19.5158 50.3362 19.6544 50.3551 20.3197C50.3646 20.9204 49.8544 21.3362 49.2215 21.3362C48.7208 21.3362 48.0974 21.059 48.069 20.3475H48.6736C48.6925 20.7263 49.0042 20.8465 49.231 20.8465C49.5238 20.8465 49.7505 20.6432 49.7505 20.3844C49.7411 20.0795 49.5049 19.9778 48.9381 19.793C48.4941 19.6636 48.1446 19.4603 48.1352 18.9891C48.1352 18.3977 48.6264 18.0465 49.2026 18.0465C49.6372 18.0465 50.2134 18.259 50.2606 18.9521H49.6655Z" fill="white"/>
</g>
<g clip-path="url(#clip1_205_107)">
<path d="M152.022 9.10754C148.225 9.10754 144.815 11.0634 144.815 14.6524C144.815 18.7858 150.838 19.068 150.838 21.1247C150.838 21.9917 149.817 22.778 148.102 22.778C145.652 22.778 143.814 21.6892 143.814 21.6892L143.038 25.3186C143.038 25.3186 145.141 26.2461 147.959 26.2461C152.125 26.2461 155.391 24.2096 155.391 20.5399C155.391 16.1847 149.348 15.9025 149.348 13.987C149.348 13.3014 150.185 12.5554 151.9 12.5554C153.84 12.5554 155.432 13.3418 155.432 13.3418L156.208 9.83341C156.188 9.83341 154.452 9.10754 152.022 9.10754ZM117.229 9.36966L117.127 9.8939C117.127 9.8939 118.72 10.1762 120.169 10.7609C122.028 11.4263 122.15 11.8094 122.477 12.999L125.887 25.9638H130.46L137.464 9.36966H132.911L128.398 20.6609L126.56 11.0835C126.397 9.99471 125.54 9.36966 124.478 9.36966H117.229ZM139.302 9.36966L135.728 25.9638H140.078L143.63 9.36966H139.302ZM163.518 9.36966C162.477 9.36966 161.925 9.91406 161.517 10.8819L155.146 25.9638H159.7L160.578 23.4434H166.132L166.663 25.9638H170.685L167.193 9.36966H163.518ZM164.11 13.866L165.458 20.0964H161.844L164.11 13.866Z" fill="white"/>
</g>
<g clip-path="url(#clip2_205_107)">
<path d="M263.39 8.41431H252.963V26.9394H263.39V8.41431Z" fill="#D5D5D5"/>
<path d="M253.626 17.6766C253.626 14.0763 255.314 10.6397 258.16 8.41403C252.997 4.38827 245.516 5.27197 241.445 10.4106C237.373 15.5164 238.267 22.9133 243.464 26.9391C247.8 30.3103 253.857 30.3103 258.193 26.9391C255.314 24.7135 253.626 21.2768 253.626 17.6766Z" fill="#8A8A8A"/>
<path d="M277.458 17.6767C277.458 24.1899 272.128 29.4594 265.542 29.4594C262.86 29.4594 260.279 28.5757 258.193 26.9392C263.357 22.9135 264.251 15.5165 260.179 10.3779C259.583 9.65789 258.921 8.97056 258.193 8.41416C263.357 4.38839 270.871 5.27209 274.909 10.4107C276.564 12.4727 277.458 15.0256 277.458 17.6767Z" fill="white"/>
<path d="M276.332 24.9756V24.5828H276.498V24.5173H276.1V24.5828H276.266V24.9756H276.332ZM277.093 24.9756V24.5173H276.961L276.829 24.8446L276.696 24.5173H276.564V24.9756H276.663V24.6155L276.796 24.9101H276.895L277.027 24.6155V24.9756H277.093Z" fill="white"/>
</g>
<g clip-path="url(#clip3_205_107)">
<path d="M457.121 9.19894C455.665 8.18878 453.461 7.67932 450.572 7.67932H443.008L440.196 23.1405H430.286L430.923 19.6327H436.892L437.6 15.6928L431.633 15.7015L432.272 12.2094H438.421L439.239 7.68022H426.752L424.082 22.3461H419.5L422.188 7.67945H415.66L412.99 22.3453H408.526L411.217 7.67945H404.693L401.877 23.1406H391.896L392.527 19.6328H398.52L399.229 15.7153L393.241 15.7093L393.876 12.2102H400.094L400.907 7.67908H361.995L359.78 19.9309L355.369 7.67908H348.597L344.952 27.674H351.42L353.626 15.0843L357.906 27.674H381.086L383.904 12.2082H387.529L384.711 27.674H445.701L447.47 17.9114L450.33 27.674H456.801L453.837 19.6968L454.515 19.549C456.009 19.2247 457.174 18.5284 457.985 17.4843C458.795 16.4307 459.208 15.078 459.208 13.4531C459.208 11.5614 458.525 10.1696 457.119 9.19778L457.121 9.19894ZM375.457 23.1405H365.557L366.197 19.6327H372.406L373.11 15.6817H366.96L367.553 12.2104H377.438L375.455 23.1404L375.457 23.1405ZM451.789 16.4056C451.138 16.8663 450.194 17.0906 448.904 17.0906H447.625L448.606 11.7249H449.547C450.618 11.7249 451.4 11.8987 451.939 12.2534C452.359 12.5316 452.86 13.0819 452.86 14.1225C452.858 15.3813 452.276 16.0577 451.787 16.4054L451.789 16.4056Z" fill="white"/>
</g>
<path fill-rule="evenodd" clip-rule="evenodd" d="M533.713 9.11156C533.884 9.04564 534.056 9.01367 534.23 9.01367C534.353 9.01367 534.478 9.03032 534.602 9.06295C534.912 9.15152 535.161 9.324 535.351 9.57972C535.541 9.82878 535.636 10.1131 535.636 10.4334V24.8796C535.636 25.2718 535.497 25.6048 535.22 25.8778C534.952 26.1575 534.623 26.2987 534.235 26.2987C533.847 26.2987 533.515 26.1575 533.238 25.8778C532.962 25.6048 532.823 25.2718 532.823 24.8796V15.5292C532.823 15.5292 528.336 23.0263 528.318 23.0549C528.188 23.2713 527.985 23.4212 527.76 23.5251C527.587 23.6063 527.394 23.6516 527.191 23.6516C526.987 23.6516 526.795 23.6063 526.621 23.5251C526.397 23.4212 526.192 23.276 526.064 23.0562C526.042 23.0189 521.559 15.5292 521.559 15.5292V24.8796C521.559 25.2718 521.421 25.6048 521.144 25.8778C520.867 26.1575 520.534 26.2987 520.147 26.2987C519.758 26.2987 519.43 26.1575 519.161 25.8778C518.884 25.6048 518.746 25.2718 518.746 24.8796V10.4334C518.746 10.1131 518.84 9.82878 519.03 9.57972C519.221 9.324 519.47 9.15152 519.779 9.06295C519.904 9.03032 520.029 9.01367 520.152 9.01367C520.326 9.01367 520.498 9.04564 520.669 9.11156C520.961 9.23143 521.192 9.42722 521.357 9.70092L527.191 19.4609L533.024 9.70092C533.19 9.42722 533.421 9.23143 533.713 9.11156ZM547.329 9.82678C547.495 9.47383 547.793 9.01367 548.603 9.01367C549.338 9.01367 549.713 9.47383 549.879 9.82678L556.618 24.2736C556.785 24.6272 556.803 24.9901 556.673 25.363C556.543 25.736 556.303 26.007 555.955 26.1761C555.607 26.3446 555.249 26.3626 554.881 26.2314C554.514 26.0989 554.246 25.8558 554.08 25.5029L548.604 13.7698L543.127 25.5029C542.961 25.8558 542.694 26.0989 542.327 26.2314C541.958 26.3626 541.6 26.3446 541.252 26.1761C540.904 26.007 540.664 25.736 540.534 25.363C540.404 24.9901 540.422 24.6272 540.589 24.2736L547.329 9.82678ZM563.33 11.5476C565.002 9.85808 567.011 9.01367 569.36 9.01367C571.564 9.01367 573.482 9.76485 575.114 11.2692C575.401 11.5356 575.552 11.8665 575.568 12.2634C575.583 12.6597 575.461 13.0026 575.197 13.2943C574.935 13.5926 574.609 13.7505 574.218 13.7671C573.828 13.7824 573.49 13.6572 573.204 13.3909C572.121 12.388 570.841 11.8872 569.36 11.8872C567.792 11.8872 566.45 12.4526 565.336 13.5846C564.222 14.7161 563.665 16.0779 563.665 17.6702C563.665 19.2757 564.222 20.6369 565.336 21.769C566.45 22.9004 567.792 23.4658 569.36 23.4658C570.841 23.4658 572.121 22.9657 573.204 21.9621C573.49 21.6964 573.828 21.5705 574.218 21.5872C574.609 21.6032 574.935 21.7603 575.197 22.0593C575.461 22.3517 575.583 22.694 575.568 23.0902C575.552 23.4864 575.401 23.8181 575.114 24.0844C573.482 25.5881 571.564 26.34 569.36 26.34C567.011 26.34 565.002 25.4956 563.33 23.8061C561.667 22.1086 560.836 20.0675 560.836 17.6828C560.836 15.2861 561.667 13.245 563.33 11.5476ZM592.996 9.42922C593.269 9.15219 593.595 9.01367 593.978 9.01367C594.359 9.01367 594.687 9.15219 594.959 9.42922C595.232 9.70691 595.369 10.0399 595.369 10.4281V24.9255C595.369 25.3138 595.232 25.6474 594.959 25.9238C594.687 26.2014 594.359 26.34 593.978 26.34C593.595 26.34 593.269 26.2014 592.996 25.9238C592.722 25.6474 592.587 25.3138 592.587 24.9255V19.2344H583.994V24.9255C583.994 25.3138 583.861 25.6474 583.596 25.9238C583.324 26.2014 582.996 26.34 582.615 26.34C582.232 26.34 581.905 26.2014 581.633 25.9238C581.36 25.6474 581.223 25.3138 581.223 24.9255V10.4281C581.223 10.0399 581.36 9.70691 581.633 9.42922C581.905 9.15219 582.232 9.01367 582.615 9.01367C582.996 9.01367 583.324 9.15219 583.596 9.42922C583.861 9.70691 583.994 10.0399 583.994 10.4281V16.4175H592.587V10.4281C592.587 10.0399 592.722 9.70691 592.996 9.42922Z" fill="white"/>
</g>
<defs>
<clipPath id="clip0_205_107">
<rect width="47.1309" height="25.7078" fill="white" transform="translate(6.06989 4.82288)"/>
</clipPath>
<clipPath id="clip1_205_107">
<rect width="53.5579" height="17.1385" fill="white" transform="translate(117.127 9.10754)"/>
</clipPath>
<clipPath id="clip2_205_107">
<rect width="38.5617" height="23.5655" fill="white" transform="translate(238.896 5.89404)"/>
</clipPath>
<clipPath id="clip3_205_107">
<rect width="114.257" height="19.9949" fill="white" transform="translate(344.954 7.67932)"/>
</clipPath>
</defs>
</svg>
